<?xml version="1.0" encoding="UTF-8"?><svg id="a" xmlns="http://www.w3.org/2000/svg" viewBox="0 0 47.34 47.34"><rect width="47.34" height="47.34" rx="10.67" ry="10.67"/><path d="M12.84,11.32c5.51-.39,11.41.24,16.96-.02,3.02.31,6.28,1,8.37,3.38,1.2,1.36,1.57,2.48.58,4.14-.63,1.06-1.58,1.57-2.27,2.46-.84,1.1-.6,2.23.47,3.07,1.43,1.13,3.04,1.96,3.21,4.06.41,5.15-3.66,6.63-7.93,7.29-6.32.98-13.34,0-19.76.36-1.32,0-2.36-.7-2.98-1.84-.53-.97-.28-1.21-.27-2.18.07-5.97-.06-11.95,0-17.92.09-.79.97-1.84,1.61-2.27s1.22-.48,2-.53ZM21.63,16.22c-1.02.11-2.62,1.01-2.76,2.15-.08.73,1.04,1.82,1.64,2.12.96.47,3.81.47,4.87.24,1.87-.41,3.49-2.16,1.59-3.74-1.15-.95-3.9-.93-5.34-.78ZM22.13,25.94c-1.35.12-2.93.83-3.34,2.24-.28.96.94,2.23,1.75,2.59,1.58.72,6.19.52,7.56-.64s1.24-2.29-.13-3.33c-1.27-.96-4.29-1.01-5.84-.87Z" style="fill:#fff;"/></svg>